<?xml version="1.0" encoding="utf-8"?>
<!-- Generator: Adobe Illustrator 25.2.1, SVG Export Plug-In . SVG Version: 6.00 Build 0)  -->
<svg version="1.1" id="Ebene_1" xmlns="http://www.w3.org/2000/svg" xmlns:xlink="http://www.w3.org/1999/xlink" x="0px" y="0px"
	 viewBox="0 0 512 512" enable-background="new 0 0 512 512" xml:space="preserve">
<rect fill="#FFFFFF" width="512" height="512"/>
<g>
	<path fill="#6676A6" d="M496.121,14.194C489.412,7.499,477.103-0.5,456.524-0.5c-20.86,0-48.191,8.963-79.376,24.961
		c14.836,7.857,29.117,17.244,42.533,28.165c8.708-3.543,39.013-14.296,45.623-7.601c35.426,35.228-128.773,219.424-164.227,254.908
		c-47.055,47.055-182.366,168-248.016,168c-19.26,0-8.536-29.954-1.304-47.822c-10.892-13.39-20.253-27.627-28.095-42.434
		C-27.45,476.893,11.281,511.5,53.062,511.5c33.724,0,84.172-23.003,140.983-62.289c19.201,6.07,39.539,9.588,60.77,9.588
		c112.293,0,203.313-91.02,203.313-203.313c0-21.159-3.517-41.467-9.559-60.613C481.883,146.852,537.45,55.492,496.121,14.194z"/>
	<path fill="#6676A6" d="M270.272,269.128c52.559-52.585,98.252-108.604,128.532-157.164
		c-36.803-36.93-87.715-59.791-143.989-59.791c-112.293,0-203.313,91.02-203.313,203.313c0,56.048,22.69,106.792,59.364,143.58
		C159.995,368.742,216.921,322.454,270.272,269.128z"/>
</g>
<rect y="312" fill="#46B28F" width="512" height="200"/>
<g>
	<path d="M75.523,345.194h22.766v133.473H75.523V345.194z M84.886,456.819h48.102v21.848H84.886V456.819z"/>
	<path d="M156.809,476.326c-5.11-2.479-9.012-6.059-11.704-10.74c-2.694-4.682-4.039-10.327-4.039-16.937v-73.438
		c0-6.609,1.345-12.27,4.039-16.982c2.692-4.712,6.594-8.292,11.704-10.74c5.109-2.447,11.245-3.672,18.405-3.672
		s13.295,1.225,18.405,3.672c5.109,2.448,9.01,6.028,11.704,10.74c2.692,4.713,4.039,10.373,4.039,16.982v73.438
		c0,6.609-1.347,12.255-4.039,16.937c-2.694,4.682-6.595,8.262-11.704,10.74c-5.11,2.479-11.245,3.718-18.405,3.718
		S161.918,478.805,156.809,476.326z M181.227,455.901c1.683-0.918,2.952-2.233,3.81-3.947c0.856-1.713,1.285-3.794,1.285-6.242
		v-67.746c0-2.387-0.429-4.437-1.285-6.15c-0.858-1.713-2.127-3.029-3.81-3.947c-1.684-0.918-3.688-1.377-6.013-1.377
		c-2.327,0-4.314,0.459-5.967,1.377s-2.907,2.234-3.764,3.947c-0.858,1.714-1.285,3.764-1.285,6.15v67.746
		c0,2.448,0.427,4.529,1.285,6.242c0.856,1.714,2.111,3.029,3.764,3.947s3.64,1.377,5.967,1.377
		C177.54,457.278,179.543,456.819,181.227,455.901z"/>
	<path d="M236.81,476.051c-4.773-2.662-8.431-6.532-10.97-11.612c-2.54-5.079-3.81-11.199-3.81-18.359v-68.297
		c0-7.16,1.27-13.279,3.81-18.359c2.539-5.079,6.196-8.95,10.97-11.612s10.525-3.993,17.258-3.993
		c6.731,0,12.499,1.331,17.303,3.993s8.46,6.549,10.971,11.658c2.508,5.11,3.764,11.245,3.764,18.405v10.74h-23.041v-10.74
		c0-2.264-0.338-4.223-1.01-5.875c-0.675-1.652-1.699-2.922-3.076-3.81c-1.377-0.887-3.015-1.331-4.911-1.331
		c-1.836,0-3.428,0.429-4.773,1.285c-1.347,0.857-2.373,2.111-3.075,3.764c-0.704,1.652-1.056,3.611-1.056,5.875v68.297
		c0,2.265,0.352,4.208,1.056,5.829c0.703,1.622,1.729,2.861,3.075,3.718c1.345,0.857,2.938,1.285,4.773,1.285
		c1.958,0,3.61-0.428,4.958-1.285c1.345-0.856,2.354-2.096,3.029-3.718c0.672-1.621,1.01-3.595,1.01-5.921v-10.74h23.041v10.74
		c0,7.16-1.256,13.296-3.764,18.405c-2.511,5.11-6.166,8.996-10.971,11.658s-10.572,3.993-17.303,3.993
		C247.335,480.044,241.583,478.713,236.81,476.051z"/>
	<path d="M320.529,345.194h15.973l31.854,133.473h-22.582l-17.258-87.482l-17.258,87.482h-22.582L320.529,345.194z M310.34,436.624
		h36.352v21.297H310.34V436.624z"/>
	<path d="M378.27,345.194h22.766v133.473H378.27V345.194z M387.633,456.819h48.102v21.848h-48.102V456.819z"/>
</g>
</svg>
