<?xml version="1.0" encoding="utf-8"?>
<!-- Generator: Adobe Illustrator 27.2.0, SVG Export Plug-In . SVG Version: 6.00 Build 0)  -->
<svg version="1.1" id="Ebene_1" xmlns="http://www.w3.org/2000/svg" xmlns:xlink="http://www.w3.org/1999/xlink" x="0px" y="0px"
	 viewBox="0 0 512 512" enable-background="new 0 0 512 512" xml:space="preserve">
<path fill="#00749D" d="M497.3,14.48c-6.71-6.7-19.03-14.71-39.63-14.71c-20.88,0-48.23,8.97-79.45,24.98
	c14.85,7.86,29.15,17.26,42.57,28.19c8.72-3.55,39.05-14.31,45.66-7.61c35.46,35.26-128.89,219.62-164.37,255.14
	c-47.1,47.1-182.53,168.15-248.24,168.15c-19.28,0-8.54-29.98-1.3-47.86c-10.9-13.4-20.27-27.65-28.12-42.47
	c-51.16,99.31-12.39,133.94,29.43,133.94c33.75,0,84.25-23.03,141.11-62.35c19.22,6.07,39.58,9.6,60.83,9.6
	c112.39,0,203.5-91.1,203.5-203.5c0-21.18-3.52-41.5-9.57-60.67C483.04,147.25,538.66,55.81,497.3,14.48z M271.24,269.64
	c52.61-52.63,98.34-108.7,128.65-157.3c-36.84-36.96-87.79-59.85-144.12-59.85c-112.39,0-203.5,91.1-203.5,203.5
	c0,56.1,22.71,106.89,59.42,143.71C160.87,369.34,217.84,323.01,271.24,269.64z"/>
</svg>
