<?xml version="1.0" encoding="utf-8"?>
<!-- Generator: Adobe Illustrator 24.1.3, SVG Export Plug-In . SVG Version: 6.00 Build 0)  -->
<svg version="1.1" id="Ebene_1" xmlns="http://www.w3.org/2000/svg" xmlns:xlink="http://www.w3.org/1999/xlink" x="0px" y="0px"
	 viewBox="0 0 512 512" enable-background="new 0 0 512 512" xml:space="preserve">
<g>
	<path fill="#6676A6" d="M497.078,14.694C490.369,7.999,478.06,0,457.481,0c-20.86,0-48.191,8.963-79.376,24.961
		c14.836,7.857,29.117,17.244,42.533,28.165c8.708-3.543,39.013-14.296,45.623-7.601c35.426,35.228-128.773,219.424-164.227,254.908
		c-47.055,47.055-182.366,168-248.016,168c-19.26,0-8.536-29.954-1.304-47.822c-10.892-13.39-20.253-27.627-28.095-42.434
		C-26.493,477.393,12.238,512,54.019,512c33.724,0,84.172-23.003,140.983-62.289c19.201,6.07,39.539,9.588,60.77,9.588
		c112.293,0,203.313-91.02,203.313-203.313c0-21.159-3.517-41.467-9.559-60.613C482.84,147.352,538.406,55.992,497.078,14.694z"/>
	<path fill="#6676A6" d="M271.229,269.628c52.559-52.585,98.252-108.604,128.532-157.164
		c-36.803-36.93-87.715-59.791-143.989-59.791c-112.293,0-203.313,91.02-203.313,203.313c0,56.048,22.69,106.792,59.364,143.58
		C160.952,369.242,217.877,322.954,271.229,269.628z"/>
</g>
</svg>
