<?xml version="1.0" standalone="no"?>
<!DOCTYPE svg PUBLIC "-//W3C//DTD SVG 20010904//EN"
 "http://www.w3.org/TR/2001/REC-SVG-20010904/DTD/svg10.dtd">
<svg version="1.0" xmlns="http://www.w3.org/2000/svg"
 width="700.000000pt" height="700.000000pt" viewBox="0 0 700.000000 700.000000"
 preserveAspectRatio="xMidYMid meet">
<metadata>
Created by potrace 1.14, written by Peter Selinger 2001-2017
</metadata>
<g transform="translate(0.000000,700.000000) scale(0.100000,-0.100000)"
fill="#000000" stroke="none">
<path d="M6105 6990 c-101 -15 -122 -20 -220 -45 -116 -30 -177 -50 -333 -112
-132 -52 -357 -157 -366 -171 -3 -6 29 -29 71 -53 104 -56 276 -169 393 -257
52 -40 99 -72 105 -72 5 0 53 15 105 34 190 68 385 104 463 87 53 -13 96 -65
112 -138 7 -37 8 -126 0 -163 -2 -14 -7 -38 -11 -55 -48 -248 -291 -690 -667
-1215 -168 -233 -510 -674 -653 -841 -21 -25 -55 -65 -74 -89 -19 -24 -40 -48
-45 -54 -6 -6 -52 -60 -104 -121 -95 -113 -167 -195 -218 -252 -15 -17 -55
-62 -88 -100 -159 -180 -297 -326 -499 -528 -191 -190 -281 -276 -447 -427
-42 -38 -326 -287 -399 -350 -48 -41 -359 -299 -400 -331 -663 -524 -1182
-858 -1585 -1020 -262 -105 -497 -147 -582 -104 -56 29 -68 61 -67 167 2 108
22 197 84 361 l40 106 -99 133 c-54 73 -141 203 -193 289 l-94 158 -32 -66
c-133 -277 -233 -545 -257 -690 -3 -19 -7 -37 -9 -40 -4 -6 -13 -65 -25 -164
-10 -81 -6 -240 8 -312 74 -367 340 -561 755 -550 422 11 986 252 1727 737
l166 109 108 -30 c101 -29 226 -56 305 -67 19 -2 46 -7 60 -9 108 -20 445 -27
614 -12 431 36 897 199 1261 440 102 67 178 122 215 153 14 12 48 41 75 64
421 356 738 861 879 1401 19 74 38 154 42 179 4 25 8 47 9 50 1 3 5 32 9 65 5
33 10 69 12 80 9 47 18 200 18 325 1 257 -23 438 -90 702 l-35 138 104 157
c485 733 731 1312 741 1740 5 208 -33 351 -130 488 -91 130 -204 206 -379 256
-77 22 -290 33 -380 19z"/>
<path d="M3308 6276 c-1 -2 -37 -6 -78 -10 -236 -19 -515 -86 -760 -183 -108
-42 -325 -147 -380 -184 -14 -9 -65 -43 -115 -75 -177 -115 -280 -199 -445
-364 -147 -147 -231 -249 -345 -420 -302 -451 -461 -969 -467 -1515 -1 -89 10
-306 17 -345 1 -8 6 -40 9 -70 4 -30 11 -75 16 -100 6 -25 12 -56 14 -70 2
-14 14 -63 26 -110 118 -464 337 -869 667 -1229 l58 -63 52 30 c133 79 460
306 656 456 66 50 129 98 141 106 21 14 216 169 226 180 3 3 39 33 80 66 41
34 91 75 110 91 194 167 287 248 295 257 6 6 33 31 60 55 143 127 327 303 565
541 289 289 387 392 585 615 39 44 77 86 85 95 40 41 313 368 410 490 41 52
80 102 87 110 112 138 318 422 446 615 47 72 90 135 94 141 14 18 33 49 40 63
4 10 -21 40 -78 94 -130 123 -281 237 -454 342 -74 45 -306 165 -319 165 -3 0
-25 9 -49 19 -99 45 -276 102 -417 135 -111 26 -133 30 -245 46 -38 6 -86 12
-105 15 -38 6 -476 16 -482 11z"/>
</g>
</svg>
