<?xml version="1.0" standalone="no"?>
<!DOCTYPE svg PUBLIC "-//W3C//DTD SVG 20010904//EN"
 "http://www.w3.org/TR/2001/REC-SVG-20010904/DTD/svg10.dtd">
<svg version="1.0" xmlns="http://www.w3.org/2000/svg"
 width="700.000000pt" height="700.000000pt" viewBox="0 0 700.000000 700.000000"
 preserveAspectRatio="xMidYMid meet">
<metadata>
Created by potrace 1.11, written by Peter Selinger 2001-2013
</metadata>
<g transform="translate(0.000000,700.000000) scale(0.100000,-0.100000)"
fill="#000000" stroke="none">
<path d="M6105 6990 c-99 -15 -122 -20 -220 -45 -181 -47 -361 -116 -590 -225
-106 -51 -126 -64 -109 -70 63 -24 307 -183 503 -326 l63 -47 122 41 c210 71
370 100 450 82 45 -10 81 -49 102 -112 32 -97 15 -225 -52 -407 -47 -124 -159
-351 -234 -471 -5 -8 -44 -71 -87 -139 -70 -114 -268 -409 -282 -421 -3 -3
-26 -34 -50 -70 -25 -36 -47 -67 -50 -70 -4 -3 -53 -68 -111 -145 -95 -127
-415 -533 -430 -545 -3 -3 -62 -72 -131 -155 -68 -82 -129 -154 -135 -160 -6
-5 -33 -37 -60 -70 -27 -33 -54 -64 -60 -70 -5 -5 -41 -46 -80 -90 -38 -44
-73 -85 -79 -91 -108 -120 -181 -201 -229 -254 -67 -73 -486 -491 -562 -560
-169 -154 -269 -245 -345 -310 -154 -135 -222 -195 -233 -205 -6 -5 -32 -27
-58 -48 -26 -21 -53 -44 -60 -51 -37 -36 -445 -359 -593 -469 -93 -69 -181
-135 -195 -145 -14 -11 -99 -69 -190 -130 -91 -61 -169 -115 -175 -119 -67
-55 -508 -296 -645 -353 -290 -122 -547 -173 -637 -127 -56 29 -68 61 -67 167
2 108 22 197 84 362 l41 107 -64 83 c-95 124 -150 206 -241 358 l-82 137 -32
-66 c-41 -86 -96 -206 -117 -256 -53 -126 -127 -357 -140 -434 -3 -19 -7 -37
-9 -40 -4 -6 -13 -65 -25 -165 -11 -87 -5 -251 13 -332 60 -277 244 -456 529
-515 167 -34 442 -9 627 56 22 8 40 12 40 8 0 -3 6 -1 12 4 7 6 26 13 43 17
38 9 240 89 325 128 292 135 575 295 902 510 161 106 168 109 200 99 99 -31
291 -76 381 -87 15 -2 39 -6 54 -9 113 -20 447 -27 617 -12 255 21 556 96 810
201 108 45 352 169 391 199 6 4 55 37 110 74 55 36 102 69 105 72 3 3 39 33
80 65 77 60 333 313 382 376 15 19 47 60 71 90 128 160 291 444 370 645 67
173 132 389 153 515 4 25 8 47 9 50 1 3 5 32 9 65 5 33 10 69 12 80 9 47 18
200 18 325 1 257 -23 438 -90 703 l-35 137 94 143 c52 78 122 187 156 242 34
55 66 107 71 115 35 57 190 334 209 375 5 11 33 69 61 130 256 540 320 981
187 1275 -82 180 -229 300 -442 361 -77 22 -289 33 -380 19z"/>
<path d="M3308 6275 c-1 -1 -34 -5 -73 -8 -89 -7 -304 -40 -347 -53 -10 -3
-29 -7 -43 -10 -56 -10 -267 -78 -375 -121 -125 -49 -304 -137 -388 -190 -29
-18 -56 -33 -61 -33 -5 0 -11 -3 -13 -7 -1 -5 -30 -26 -63 -47 -54 -36 -173
-122 -185 -136 -3 -3 -27 -23 -55 -44 -74 -59 -290 -279 -368 -376 -393 -489
-613 -1097 -619 -1715 -1 -98 10 -315 17 -355 1 -8 6 -40 9 -70 4 -30 11 -75
16 -100 6 -25 12 -56 14 -70 2 -14 16 -70 30 -125 117 -455 336 -857 663
-1214 l58 -63 40 23 c54 31 290 188 395 262 149 106 620 464 640 487 3 3 71
60 152 127 80 68 152 128 160 135 7 7 49 44 93 83 121 106 218 194 385 350
133 124 574 568 685 689 55 60 114 123 130 141 35 39 64 71 164 185 41 47 80
90 85 95 35 33 456 551 511 629 11 16 35 47 54 70 19 22 45 59 59 81 14 22 30
45 37 51 28 29 345 499 345 513 0 10 -127 132 -195 186 -28 22 -52 42 -55 45
-25 27 -235 168 -330 222 -57 32 -234 121 -280 141 -19 8 -48 20 -65 27 -80
34 -272 94 -380 120 -125 30 -144 33 -260 50 -38 6 -86 12 -105 15 -38 6 -476
15 -482 10z"/>
</g>
</svg>
