<svg xmlns="http://www.w3.org/2000/svg" viewBox="0 0 512 512">
    <path fill="#FFF" d="M0 0h512v512H0z"/>
    <g fill="#6676A6">
        <path d="M496.121 14.194C489.412 7.499 477.103-.5 456.524-.5c-20.86 0-48.191 8.963-79.376 24.961a260.428 260.428 0 0142.533 28.165c8.708-3.543 39.013-14.296 45.623-7.601 35.426 35.228-128.773 219.424-164.227 254.908-47.055 47.055-182.366 168-248.016 168-19.26 0-8.536-29.954-1.304-47.822a260.226 260.226 0 01-28.095-42.434C-27.45 476.893 11.281 511.5 53.062 511.5c33.724 0 84.172-23.003 140.983-62.289 19.201 6.07 39.539 9.588 60.77 9.588 112.293 0 203.313-91.02 203.313-203.313 0-21.159-3.517-41.467-9.559-60.613 33.314-48.021 88.881-139.381 47.552-180.679z"/>
        <path d="M270.272 269.128c52.559-52.585 98.252-108.604 128.532-157.164-36.803-36.93-87.715-59.791-143.989-59.791-112.293 0-203.313 91.02-203.313 203.313 0 56.048 22.69 106.792 59.364 143.58 49.129-30.324 106.055-76.612 159.406-129.938z"/>
    </g>
    <path fill="#46B28F" d="M0 312h512v200H0z"/>
    <path d="M75.523 345.194h22.766v133.473H75.523V345.194zm9.363 111.625h48.102v21.848H84.886v-21.848zm71.923 19.507c-5.11-2.479-9.012-6.059-11.704-10.74-2.694-4.682-4.039-10.327-4.039-16.937v-73.438c0-6.609 1.345-12.27 4.039-16.982 2.692-4.712 6.594-8.292 11.704-10.74 5.109-2.447 11.245-3.672 18.405-3.672s13.295 1.225 18.405 3.672c5.109 2.448 9.01 6.028 11.704 10.74 2.692 4.713 4.039 10.373 4.039 16.982v73.438c0 6.609-1.347 12.255-4.039 16.937-2.694 4.682-6.595 8.262-11.704 10.74-5.11 2.479-11.245 3.718-18.405 3.718s-13.296-1.239-18.405-3.718zm24.418-20.425a8.965 8.965 0 003.81-3.947c.856-1.713 1.285-3.794 1.285-6.242v-67.746c0-2.387-.429-4.437-1.285-6.15a8.97 8.97 0 00-3.81-3.947c-1.684-.918-3.688-1.377-6.013-1.377-2.327 0-4.314.459-5.967 1.377s-2.907 2.234-3.764 3.947c-.858 1.714-1.285 3.764-1.285 6.15v67.746c0 2.448.427 4.529 1.285 6.242.856 1.714 2.111 3.029 3.764 3.947s3.64 1.377 5.967 1.377c2.326 0 4.329-.459 6.013-1.377zm55.583 20.15c-4.773-2.662-8.431-6.532-10.97-11.612-2.54-5.079-3.81-11.199-3.81-18.359v-68.297c0-7.16 1.27-13.279 3.81-18.359 2.539-5.079 6.196-8.95 10.97-11.612s10.525-3.993 17.258-3.993c6.731 0 12.499 1.331 17.303 3.993s8.46 6.549 10.971 11.658c2.508 5.11 3.764 11.245 3.764 18.405v10.74h-23.041v-10.74c0-2.264-.338-4.223-1.01-5.875-.675-1.652-1.699-2.922-3.076-3.81-1.377-.887-3.015-1.331-4.911-1.331-1.836 0-3.428.429-4.773 1.285-1.347.857-2.373 2.111-3.075 3.764-.704 1.652-1.056 3.611-1.056 5.875v68.297c0 2.265.352 4.208 1.056 5.829.703 1.622 1.729 2.861 3.075 3.718 1.345.857 2.938 1.285 4.773 1.285 1.958 0 3.61-.428 4.958-1.285 1.345-.856 2.354-2.096 3.029-3.718.672-1.621 1.01-3.595 1.01-5.921v-10.74h23.041v10.74c0 7.16-1.256 13.296-3.764 18.405-2.511 5.11-6.166 8.996-10.971 11.658s-10.572 3.993-17.303 3.993c-6.733 0-12.485-1.331-17.258-3.993zm83.719-130.857h15.973l31.854 133.473h-22.582l-17.258-87.482-17.258 87.482h-22.582l31.853-133.473zm-10.189 91.43h36.352v21.297H310.34v-21.297zm67.93-91.43h22.766v133.473H378.27V345.194zm9.363 111.625h48.102v21.848h-48.102v-21.848z"/>
</svg>
