<svg xmlns="http://www.w3.org/2000/svg" viewBox="0 0 512 512" xml:space="preserve">
    <path fill="#00749D" d="M497.3 14.48c-6.71-6.7-19.03-14.71-39.63-14.71-20.88 0-48.23 8.97-79.45 24.98a260.068 260.068 0 0 1 42.57 28.19c8.72-3.55 39.05-14.31 45.66-7.61 35.46 35.26-128.89 219.62-164.37 255.14-47.1 47.1-182.53 168.15-248.24 168.15-19.28 0-8.54-29.98-1.3-47.86a260.545 260.545 0 0 1-28.12-42.47c-51.16 99.31-12.39 133.94 29.43 133.94 33.75 0 84.25-23.03 141.11-62.35 19.22 6.07 39.58 9.6 60.83 9.6 112.39 0 203.5-91.1 203.5-203.5 0-21.18-3.52-41.5-9.57-60.67 33.32-48.06 88.94-139.5 47.58-180.83zM271.24 269.64c52.61-52.63 98.34-108.7 128.65-157.3-36.84-36.96-87.79-59.85-144.12-59.85-112.39 0-203.5 91.1-203.5 203.5 0 56.1 22.71 106.89 59.42 143.71 49.18-30.36 106.15-76.69 159.55-130.06z"/>
</svg>
