<svg xmlns="http://www.w3.org/2000/svg" viewBox="0 0 512 512">
    <g fill="#6676A6">
        <path d="M497.078 14.694C490.369 7.999 478.06 0 457.481 0c-20.86 0-48.191 8.963-79.376 24.961a260.428 260.428 0 0142.533 28.165c8.708-3.543 39.013-14.296 45.623-7.601 35.426 35.228-128.773 219.424-164.227 254.908-47.055 47.055-182.366 168-248.016 168-19.26 0-8.536-29.954-1.304-47.822a260.226 260.226 0 01-28.095-42.434C-26.493 477.393 12.238 512 54.019 512c33.724 0 84.172-23.003 140.983-62.289 19.201 6.07 39.539 9.588 60.77 9.588 112.293 0 203.313-91.02 203.313-203.313 0-21.159-3.517-41.467-9.559-60.613 33.314-48.021 88.88-139.381 47.552-180.679z"/>
        <path d="M271.229 269.628c52.559-52.585 98.252-108.604 128.532-157.164-36.803-36.93-87.715-59.791-143.989-59.791-112.293 0-203.313 91.02-203.313 203.313 0 56.048 22.69 106.792 59.364 143.58 49.129-30.324 106.054-76.612 159.406-129.938z"/>
    </g>
</svg>
