<svg version="1.0" xmlns="http://www.w3.org/2000/svg" width="933.333" height="933.333" viewBox="0 0 700 700">
    <path d="M610.5 1c-9.9 1.5-12.2 2-22 4.5-18.1 4.7-36.1 11.6-59 22.5-10.6 5.1-12.6 6.4-10.9 7 6.3 2.4 30.7 18.3 50.3 32.6l6.3 4.7 12.2-4.1c21-7.1 37-10 45-8.2 4.5 1 8.1 4.9 10.2 11.2 3.2 9.7 1.5 22.5-5.2 40.7-4.7 12.4-15.9 35.1-23.4 47.1-.5.8-4.4 7.1-8.7 13.9-7 11.4-26.8 40.9-28.2 42.1-.3.3-2.6 3.4-5 7-2.5 3.6-4.7 6.7-5 7-.4.3-5.3 6.8-11.1 14.5-9.5 12.7-41.5 53.3-43 54.5-.3.3-6.2 7.2-13.1 15.5-6.8 8.2-12.9 15.4-13.5 16-.6.5-3.3 3.7-6 7s-5.4 6.4-6 7c-.5.5-4.1 4.6-8 9-3.8 4.4-7.3 8.5-7.9 9.1-10.8 12-18.1 20.1-22.9 25.4-6.7 7.3-48.6 49.1-56.2 56-16.9 15.4-26.9 24.5-34.5 31-15.4 13.5-22.2 19.5-23.3 20.5-.6.5-3.2 2.7-5.8 4.8-2.6 2.1-5.3 4.4-6 5.1-3.7 3.6-44.5 35.9-59.3 46.9-9.3 6.9-18.1 13.5-19.5 14.5-1.4 1.1-9.9 6.9-19 13s-16.9 11.5-17.5 11.9c-6.7 5.5-50.8 29.6-64.5 35.3-29 12.2-54.7 17.3-63.7 12.7-5.6-2.9-6.8-6.1-6.7-16.7.2-10.8 2.2-19.7 8.4-36.2l4.1-10.7-6.4-8.3c-9.5-12.4-15-20.6-24.1-35.8l-8.2-13.7-3.2 6.6c-4.1 8.6-9.6 20.6-11.7 25.6-5.3 12.6-12.7 35.7-14 43.4-.3 1.9-.7 3.7-.9 4-.4.6-1.3 6.5-2.5 16.5-1.1 8.7-.5 25.1 1.3 33.2 6 27.7 24.4 45.6 52.9 51.5 16.7 3.4 44.2.9 62.7-5.6 2.2-.8 4-1.2 4-.8 0 .3.6.1 1.2-.4.7-.6 2.6-1.3 4.3-1.7 3.8-.9 24-8.9 32.5-12.8 29.2-13.5 57.5-29.5 90.2-51 16.1-10.6 16.8-10.9 20-9.9 9.9 3.1 29.1 7.6 38.1 8.7 1.5.2 3.9.6 5.4.9 11.3 2 44.7 2.7 61.7 1.2 25.5-2.1 55.6-9.6 81-20.1 10.8-4.5 35.2-16.9 39.1-19.9.6-.4 5.5-3.7 11-7.4 5.5-3.6 10.2-6.9 10.5-7.2.3-.3 3.9-3.3 8-6.5 7.7-6 33.3-31.3 38.2-37.6 1.5-1.9 4.7-6 7.1-9 12.8-16 29.1-44.4 37-64.5 6.7-17.3 13.2-38.9 15.3-51.5.4-2.5.8-4.7.9-5 .1-.3.5-3.2.9-6.5.5-3.3 1-6.9 1.2-8 .9-4.7 1.8-20 1.8-32.5.1-25.7-2.3-43.8-9-70.3l-3.5-13.7 9.4-14.3c5.2-7.8 12.2-18.7 15.6-24.2 3.4-5.5 6.6-10.7 7.1-11.5 3.5-5.7 19-33.4 20.9-37.5.5-1.1 3.3-6.9 6.1-13 25.6-54 32-98.1 18.7-127.5-8.2-18-22.9-30-44.2-36.1-7.7-2.2-28.9-3.3-38-1.9z"/>
    <path d="M330.8 72.5c-.1.1-3.4.5-7.3.8-8.9.7-30.4 4-34.7 5.3-1 .3-2.9.7-4.3 1-5.6 1-26.7 7.8-37.5 12.1-12.5 4.9-30.4 13.7-38.8 19-2.9 1.8-5.6 3.3-6.1 3.3s-1.1.3-1.3.7c-.1.5-3 2.6-6.3 4.7-5.4 3.6-17.3 12.2-18.5 13.6-.3.3-2.7 2.3-5.5 4.4-7.4 5.9-29 27.9-36.8 37.6-39.3 48.9-61.3 109.7-61.9 171.5-.1 9.8 1 31.5 1.7 35.5.1.8.6 4 .9 7 .4 3 1.1 7.5 1.6 10 .6 2.5 1.2 5.6 1.4 7 .2 1.4 1.6 7 3 12.5 11.7 45.5 33.6 85.7 66.3 121.4l5.8 6.3 4-2.3c5.4-3.1 29-18.8 39.5-26.2 14.9-10.6 62-46.4 64-48.7.3-.3 7.1-6 15.2-12.7 8-6.8 15.2-12.8 16-13.5.7-.7 4.9-4.4 9.3-8.3 12.1-10.6 21.8-19.4 38.5-35 13.3-12.4 57.4-56.8 68.5-68.9 5.5-6 11.4-12.3 13-14.1 3.5-3.9 6.4-7.1 16.4-18.5 4.1-4.7 8-9 8.5-9.5 3.5-3.3 45.6-55.1 51.1-62.9 1.1-1.6 3.5-4.7 5.4-7 1.9-2.2 4.5-5.9 5.9-8.1 1.4-2.2 3-4.5 3.7-5.1 2.8-2.9 34.5-49.9 34.5-51.3 0-1-12.7-13.2-19.5-18.6-2.8-2.2-5.2-4.2-5.5-4.5-2.5-2.7-23.5-16.8-33-22.2-5.7-3.2-23.4-12.1-28-14.1-1.9-.8-4.8-2-6.5-2.7-8-3.4-27.2-9.4-38-12-12.5-3-14.4-3.3-26-5-3.8-.6-8.6-1.2-10.5-1.5-3.8-.6-47.6-1.5-48.2-1z"/>
</svg>
