<svg data-name="Ebene 1" xmlns="http://www.w3.org/2000/svg" viewBox="0 0 24 24">
    <g data-name="Interface-Essential / Alerts / alert-circle">
        <g data-name="Group 181">
            <path d="M12 18a1.125 1.125 0 111.125-1.125A1.127 1.127 0 0112 18zm0-1.5a.375.375 0 10.375.375A.375.375 0 0012 16.5zm0-2.25a.75.75 0 01-.75-.75V5.25a.75.75 0 011.5 0v8.25a.75.75 0 01-.75.75z"/>
            <path d="M12 24a12 12 0 1112-12 12.014 12.014 0 01-12 12zm0-22.5A10.5 10.5 0 1022.5 12 10.512 10.512 0 0012 1.5z"/>
        </g>
    </g>
</svg>
