<svg xmlns="http://www.w3.org/2000/svg" viewBox="-0.29 62.68 512 512">
    <path d="M505.93 482.24c16.45 28.45-4.18 64.01-36.98 64.01H42.44c-32.8 0-53.34-35.65-36.98-64.01l213.26-369.8c16.45-28.45 57.51-28.45 73.96 0l213.25 369.8zM255.7 405.8c-22.58 0-40.89 18.31-40.89 40.89s18.31 40.89 40.89 40.89 40.88-18.31 40.88-40.89-18.3-40.89-40.88-40.89zm-38.85-146.95 6.57 120.9c.27 5.69 4.98 10.05 10.67 10.05h43.11c5.69 0 10.31-4.45 10.66-10.05l6.59-120.9c.36-6.13-4.53-11.29-10.68-11.29h-56.35c-6.14 0-11.03 5.16-10.67 11.29h.1z"/>
</svg>
