<svg data-name="Ebene 1" xmlns="http://www.w3.org/2000/svg" viewBox="0 0 24 24">
    <g data-name="Interface-Essential / Form-Validation / remove-circle">
        <g data-name="Group 400">
            <path d="M12 24a12 12 0 1112-12 12.014 12.014 0 01-12 12zm0-22.5A10.5 10.5 0 1022.5 12 10.512 10.512 0 0012 1.5z"/>
            <path d="M7.5 17.25a.751.751 0 01-.53-1.281l9-9a.75.75 0 011.06 1.061l-9 9a.744.744 0 01-.53.22z"/>
            <path d="M16.5 17.25a.744.744 0 01-.53-.22l-9-9a.75.75 0 111.06-1.061l9 9a.751.751 0 01-.53 1.281z"/>
        </g>
    </g>
</svg>
