<svg xmlns="http://www.w3.org/2000/svg" viewBox="0 0 512 512">
    <path d="M440.89 284.44h-28.44c-7.85 0-14.22 6.37-14.22 14.22v99.56H113.78V113.78h128c7.85 0 14.22-6.37 14.22-14.22V71.11c0-7.85-6.37-14.22-14.22-14.22H99.56c-23.56 0-42.67 19.1-42.67 42.67v312.89c0 23.56 19.1 42.67 42.67 42.67h312.89c23.56 0 42.67-19.1 42.67-42.67V298.67c-.01-7.86-6.38-14.23-14.23-14.23zM490.67 0H376.89c-19 0-28.49 23.03-15.11 36.44l31.76 31.76-216.65 216.57c-8.35 8.32-8.37 21.82-.05 30.17l.05.05 20.15 20.12c8.32 8.35 21.82 8.37 30.17.05l.05-.05 216.54-216.6 31.75 31.72c13.33 13.33 36.44 4 36.44-15.11V21.33C512 9.55 502.45 0 490.67 0z"/>
</svg>
