<svg xmlns="http://www.w3.org/2000/svg" viewBox="0 0 512 512">
    <path d="M280 236.07c0-6.63-5.37-12-12-12h-24c-6.63 0-12 5.37-12 12v84.01h-48.88c-10.71 0-16.05 12.97-8.45 20.52l72.31 71.77c4.99 4.95 13.04 4.95 18.03 0l72.31-71.77c7.6-7.54 2.26-20.52-8.45-20.52H280v-84.01zM433.83 97.98 349.94 14.1c-9-9-21.2-14.1-33.89-14.1H111.99C85.5.1 64 21.6 64 48.09v415.92C64 490.5 85.5 512 111.99 512h287.94c26.5 0 48.07-21.5 48.07-47.99V131.97c0-12.69-5.17-24.99-14.17-33.99zM319.95 51.99l76.09 76.08h-76.09V51.99zM400 464.01H111.99V48.09h159.97v103.98c0 13.3 10.7 23.99 24 23.99H400v287.95z"/>
</svg>
