<svg viewBox="0 0 512 512" xmlns="http://www.w3.org/2000/svg">
    <path d="M171.583 407.764c0 2.056-2.365 3.701-5.346 3.701-3.394.309-5.759-1.336-5.759-3.701 0-2.057 2.365-3.702 5.347-3.702 3.085-.308 5.758 1.337 5.758 3.702Zm-31.978-4.627c-.72 2.056 1.337 4.421 4.422 5.038 2.673 1.028 5.758 0 6.375-2.057.617-2.056-1.337-4.421-4.422-5.346-2.673-.72-5.655.308-6.375 2.365Zm45.448-1.748c-2.982.72-5.038 2.673-4.73 5.038.309 2.056 2.982 3.393 6.067 2.673 2.982-.72 5.038-2.673 4.73-4.73-.309-1.953-3.085-3.29-6.067-2.981ZM252.711 7.37C110.095 7.37 1 115.643 1 258.259c0 114.03 71.77 211.61 174.285 245.953 13.161 2.365 17.788-5.759 17.788-12.442 0-6.375-.308-41.54-.308-63.133 0 0-71.976 15.423-87.091-30.642 0 0-11.722-29.921-28.585-37.633 0 0-23.546-16.143 1.645-15.835 0 0 25.603 2.057 39.69 26.529 22.518 39.69 60.254 28.276 74.958 21.49 2.365-16.452 9.048-27.865 16.452-34.652-57.479-6.375-115.47-14.703-115.47-113.619 0-28.276 7.814-42.466 24.266-60.563-2.674-6.683-11.414-34.24 2.673-69.817 21.49-6.683 70.948 27.763 70.948 27.763 20.564-5.758 42.671-8.74 64.573-8.74 21.9 0 44.008 2.982 64.572 8.74 0 0 49.458-34.549 70.948-27.763 14.087 35.68 5.347 63.134 2.674 69.817 16.451 18.2 26.528 32.39 26.528 60.563 0 99.224-60.563 107.142-118.04 113.62 9.459 8.122 17.48 23.546 17.48 47.71 0 34.65-.31 77.528-.31 85.96 0 6.683 4.73 14.806 17.79 12.44C441.287 469.87 511.001 372.29 511.001 258.26c0-142.616-115.676-250.888-258.291-250.888ZM100.944 362.007c-1.337 1.029-1.028 3.394.72 5.347 1.645 1.645 4.01 2.365 5.347 1.028 1.336-1.028 1.028-3.393-.72-5.346-1.645-1.646-4.01-2.365-5.347-1.029Zm-11.105-8.328c-.72 1.336.309 2.982 2.365 4.01 1.645 1.028 3.702.72 4.421-.72.72-1.337-.308-2.982-2.365-4.01-2.056-.617-3.701-.309-4.42.72Zm33.315 36.605c-1.645 1.336-1.029 4.421 1.336 6.375 2.365 2.365 5.347 2.673 6.684 1.028 1.337-1.337.72-4.421-1.337-6.375-2.262-2.365-5.347-2.673-6.683-1.028Zm-11.722-15.115c-1.645 1.028-1.645 3.701 0 6.066 1.645 2.365 4.421 3.393 5.758 2.365 1.645-1.337 1.645-4.01 0-6.375-1.44-2.365-4.113-3.393-5.758-2.056Z"/>
</svg>
