<svg data-name="Ebene 1" xmlns="http://www.w3.org/2000/svg" viewBox="0 0 24 24">
    <g data-name="Interface-Essential / Home / house-2">
        <g data-name="Group 3">
            <path d="M22.5 13.19a.748.748 0 01-.53-.22l-9.443-9.436A.752.752 0 0012 3.31a.744.744 0 00-.529.219l-9.44 9.441a.751.751 0 01-1.062-1.061L10.4 2.467a2.242 2.242 0 011.59-.657H12a2.243 2.243 0 011.589.665l9.441 9.434a.75.75 0 01-.53 1.281z"/>
            <path d="M19.5 22.19h-15a.75.75 0 01-.75-.75v-12a.75.75 0 011.5 0v11.25h13.5V9.442a.75.75 0 011.5 0v12a.75.75 0 01-.75.748z"/>
            <path d="M15 22.19a.75.75 0 01-.75-.75v-4.5a2.25 2.25 0 10-4.5 0v4.5a.75.75 0 01-1.5 0v-4.5a3.75 3.75 0 017.5 0v4.5a.75.75 0 01-.75.75z"/>
        </g>
    </g>
</svg>
