<svg xmlns="http://www.w3.org/2000/svg" viewBox="0 0 24 24">
    <path d="M5.774 13.011a.751.751 0 0 1-.531-1.281l5.595-5.6A1.63 1.63 0 0 1 12 5.653a1.628 1.628 0 0 1 1.157.485l5.6 5.592a.75.75 0 0 1-1.057 1.061L12.1 7.2c-.028-.028-.072-.055-.1-.043a.138.138 0 0 0-.1.04l-5.592 5.6a.752.752 0 0 1-.534.214Z"/>
    <path d="M16.447 18.347H7.553a.75.75 0 0 1-.75-.75V10.48a.75.75 0 0 1 1.5 0v6.367H15.7v-6.364a.75.75 0 0 1 1.5 0V17.6a.75.75 0 0 1-.753.747Z"/>
    <path d="M13.619 17.879a.75.75 0 0 1-.75-.75V14.7a.869.869 0 1 0-1.738 0v2.427a.75.75 0 0 1-1.5 0V14.7a2.369 2.369 0 1 1 4.738 0v2.427a.75.75 0 0 1-.75.752Z"/>
</svg>
