<svg viewBox="0 0 512 512" xmlns="http://www.w3.org/2000/svg" fill-rule="evenodd" clip-rule="evenodd" stroke-linejoin="round" stroke-miterlimit="2">
    <path d="M506.895 219.907 287.924 39.965c-18.404-15.373-45.429-15.373-63.833 0L5.12 219.907c-5.962 5.006-6.763 14.024-1.778 20.003l9.068 11.024c5.006 5.962 14.025 6.764 20.004 1.778l24.448-20.092v51.831h-.266v184.921c.048 7.818 6.495 14.224 14.313 14.224h370.019c7.804 0 14.225-6.421 14.225-14.224V232.62l24.448 20.092c5.98 4.986 14.998 4.184 20.004-1.778l9.157-10.935a14.228 14.228 0 0 0 3.307-9.118c0-4.245-1.9-8.274-5.174-10.974Zm-94.416 7.645h-.178v213.37h-99.395V312.9c0-15.606-12.842-28.449-28.449-28.449h-56.899c-15.606 0-28.449 12.843-28.449 28.449v128.022H99.27V201.326l.266-.267v-3.556L256.008 69.036l156.471 128.556v29.96Z" fill-rule="nonzero"/>
</svg>
