<svg viewBox="0 0 512 512" xmlns="http://www.w3.org/2000/svg">
    <path d="M115.158 510.994H9.424V170.501h105.734v340.493ZM62.234 124.055C28.424 124.055 1 96.05 1 62.24 1 28.648 28.642 1.006 62.234 1.006s61.234 27.642 61.234 61.234c0 33.81-27.435 61.815-61.234 61.815ZM511 510.994H405.38v-165.75c0-39.502-.797-90.16-54.973-90.16-54.973 0-63.397 42.917-63.397 87.314v168.596H181.39V170.501h101.408v46.446h1.48c14.116-26.752 48.598-54.984 100.042-54.984 107.009 0 126.68 70.467 126.68 161.993v187.038Z"/>
</svg>
