<svg xmlns="http://www.w3.org/2000/svg" width="260" height="260" viewBox="0 0 260 260">
    <g fill="#6676A6">
        <path d="M252.422 7.462C249.016 4.062 242.765 0 232.314 0c-10.593 0-24.472 4.552-40.309 12.676a132.212 132.212 0 0121.6 14.302c4.422-1.799 19.811-7.26 23.168-3.86 17.989 17.889-65.393 111.427-83.396 129.445-23.896 23.896-92.608 85.313-125.946 85.313-9.781 0-4.335-15.211-.662-24.284a132.12 132.12 0 01-14.267-21.549C-13.454 242.426 6.215 260 27.432 260c17.125 0 42.744-11.682 71.593-31.631 9.75 3.082 20.079 4.869 30.86 4.869 57.024 0 103.245-46.222 103.245-103.246 0-10.745-1.785-21.057-4.854-30.78 16.916-24.385 45.133-70.778 24.146-91.75z"/>
        <path d="M137.733 136.92c26.69-26.703 49.894-55.15 65.271-79.809-18.689-18.754-44.543-30.363-73.12-30.363-57.024 0-103.245 46.221-103.245 103.245 0 28.462 11.522 54.23 30.146 72.912 24.948-15.399 53.856-38.905 80.948-65.985z"/>
    </g>
</svg>
