<svg viewBox="0 0 512 512" xmlns="http://www.w3.org/2000/svg">
    <path d="M494.817 168.135c0-111.068-72.8-143.634-72.8-143.634-71.44-32.795-261.17-32.452-331.924 0 0 0-72.811 32.566-72.811 143.634 0 132.207-7.542 296.41 120.7 330.347 46.29 12.227 86.066 14.855 118.073 13.027 58.059-3.2 90.637-20.683 90.637-20.683l-1.943-42.164s-41.49 13.026-88.123 11.541c-46.175-1.6-94.842-5.028-102.418-61.705a117.167 117.167 0 0 1-1.028-15.883c97.847 23.882 181.285 10.398 204.253 7.656 64.127-7.656 119.981-47.193 127.1-83.301 11.198-56.905 10.284-138.835 10.284-138.835Zm-85.838 143.063h-53.283V180.704c0-56.79-73.131-58.962-73.131 7.885v71.417h-52.94v-71.429c0-66.846-73.131-64.675-73.131-7.884v130.493h-53.398c0-139.52-5.941-169.001 21.037-199.968 29.595-33.023 91.208-35.194 118.644 6.971l13.255 22.282 13.255-22.282c27.55-42.393 89.266-39.765 118.644-6.971 27.093 31.195 21.025 60.562 21.025 199.968l.023.012Z"/>
</svg>
