<svg viewBox="0 0 512 512" xmlns="http://www.w3.org/2000/svg">
    <path d="M146.807 438.096c0 40.264-32.64 72.904-72.904 72.904C33.639 511 1 478.36 1 438.096c0-40.264 32.64-72.904 72.904-72.904 40.264 0 72.903 32.641 72.903 72.904Zm199.969 53.789c-9.51-175.995-150.478-317.141-326.661-326.662C9.716 164.661 1 173.017 1 183.431v54.721c0 9.58 7.388 17.613 16.947 18.235 127.309 8.292 229.356 110.085 237.665 237.664.622 9.559 8.656 16.948 18.235 16.948h54.721c10.415.001 18.771-8.715 18.208-19.114Zm164.212.328C501.433 226.034 287.266 10.614 19.787 1.012 9.507.643 1 8.947 1 19.233v54.72c0 9.819 7.781 17.81 17.592 18.213 217.636 8.924 392.32 183.641 401.243 401.243.402 9.811 8.393 17.592 18.213 17.592h54.72c10.285-.001 18.589-8.508 18.22-18.788Z"/>
</svg>
