<svg viewBox="0 0 128 128" xmlns="http://www.w3.org/2000/svg">
    <path d="M84.12 88.786c-14.074 11.895-34.676 16.496-52.814 8.955C15.086 90.998 2.915 75.317.478 57.902c-2.242-16.023 3.686-32.981 15.484-44.096C25.19 5.113 37.678.106 50.473-.015h.657C69.558.16 87.425 11.059 95.916 27.39c7.24 13.926 7.517 31.271.689 45.443-2.005 4.162-4.628 7.98-7.728 11.376l38.172 38.173c.705.755.821 1.154.926 1.817.422 2.666-3.056 5.214-5.592 2.849L84.12 88.786ZM50.515 6.584c-20.258.192-39.139 15.648-43.086 35.571-2.863 14.448 2.059 30.227 12.674 40.469 12.274 11.842 31.679 15.668 47.66 9.023 14.116-5.868 24.707-19.519 26.826-34.659 2.628-18.775-8.243-38.656-25.592-46.5-5.792-2.619-12.117-3.924-18.482-3.904Z"/>
</svg>
