<svg xmlns="http://www.w3.org/2000/svg" viewBox="0 0 256 256">
    <path d="M128 18c5.71 0 11.31.43 16.79 1.27l-1.57 10.19c-4.96-.76-10.04-1.15-15.21-1.15s-10.25.39-15.21 1.15l-1.57-10.19C116.69 18.43 122.29 18 128 18zm26.1 3.12-2.45 10.02a99.396 99.396 0 0 1 28.11 11.65l5.35-8.82a109.308 109.308 0 0 0-31.01-12.85zm38.91 18.14-6.09 8.32c8.22 6.03 15.48 13.29 21.51 21.51l8.32-6.09a110.426 110.426 0 0 0-23.74-23.74zm29.02 31.62-8.81 5.35c5.23 8.6 9.2 18.05 11.65 28.1l10.02-2.45c-2.7-11.07-7.09-21.51-12.86-31zm14.7 40.34-10.19 1.57c.76 4.96 1.15 10.04 1.15 15.21s-.39 10.25-1.15 15.21l10.19 1.57c.84-5.47 1.27-11.08 1.27-16.79 0-5.7-.44-11.3-1.27-16.77zm-23.52 68.54c5.23-8.6 9.2-18.05 11.65-28.11l10.02 2.45c-2.7 11.09-7.08 21.53-12.86 31.01l-8.81-5.35zm-4.79 7.16 8.32 6.09a110.56 110.56 0 0 1-23.73 23.73l-6.1-8.32c8.22-6.03 15.48-13.29 21.51-21.5zm-28.66 26.29 5.35 8.81a109.282 109.282 0 0 1-31.01 12.86l-2.45-10.02a98.7 98.7 0 0 0 28.11-11.65zm-36.55 13.32 1.57 10.19c-5.47.84-11.08 1.27-16.79 1.27-5.71 0-11.31-.44-16.79-1.27l1.57-10.19c4.96.76 10.04 1.15 15.21 1.15 5.19.01 10.27-.39 15.23-1.15zm-38.87-1.66-2.45 10.02c-8.33-2.03-16.29-5-23.76-8.81l-10.44 2.44-2.34-10.04 14.11-3.29 3.36 1.71a99.763 99.763 0 0 0 21.52 7.97zm-47.69-4.37 2.34 10.04-17.9 4.17c-11.91 2.78-22.6-7.91-19.82-19.82l4.18-17.9 10.04 2.34-4.17 17.89c-1.04 4.46 2.97 8.47 7.43 7.43l17.9-4.15zm-19.12-29.85-10.04-2.35 2.44-10.44c-3.8-7.47-6.78-15.43-8.81-23.76l10.02-2.45a99.021 99.021 0 0 0 7.98 21.53l1.71 3.36-3.3 14.11zm-8.07-47.44-10.19 1.57C18.43 139.31 18 133.71 18 128c0-5.71.43-11.31 1.27-16.78l10.19 1.57c-.76 4.96-1.15 10.04-1.15 15.21 0 5.18.4 10.25 1.15 15.21zm1.68-38.87-10.02-2.45c2.7-11.09 7.08-21.52 12.86-31.01l8.82 5.35a98.674 98.674 0 0 0-11.66 28.11zm16.44-35.25L39.26 63C45.92 53.93 53.93 45.92 63 39.26l6.09 8.32a100.174 100.174 0 0 0-21.51 21.51zm28.66-26.3-5.35-8.82c9.49-5.78 19.92-10.16 31.01-12.85l2.45 10.02a98.7 98.7 0 0 0-28.11 11.65zM217.38 128c0 49.36-40.01 89.38-89.38 89.38-15.66 0-30.37-4.03-43.17-11.1-1.23-.68-2.67-.91-4.04-.59l-39.76 9.28 9.28-39.76c.32-1.37.1-2.81-.59-4.04-7.07-12.8-11.1-27.51-11.1-43.17 0-49.36 40.01-89.38 89.38-89.38s89.38 40.02 89.38 89.38z"/>
</svg>
