<svg xmlns="http://www.w3.org/2000/svg" viewBox="0 0 512 512">
    <path d="M479.15 210.1c-43.87.09-86.67-13.6-122.33-39.15v178.12c-.03 89.46-72.57 161.96-162.03 161.93S32.83 438.43 32.85 348.97c.03-89.46 72.57-161.96 162.03-161.93 7.45 0 14.89.52 22.26 1.54v89.56c-39.15-12.32-80.88 9.42-93.2 48.57s9.42 80.88 48.57 93.2c39.15 12.32 80.88-9.42 93.2-48.57a74.48 74.48 0 0 0 3.43-22.27V1h87.66c-.05 7.41.58 14.82 1.89 22.12a121.716 121.716 0 0 0 53.69 79.89 120.892 120.892 0 0 0 66.74 20.02v87.07z"/>
</svg>
