<svg xmlns="http://www.w3.org/2000/svg" viewBox="0 0 512 512">
    <path d="M323.82 83.962c-66.605 133.629-70.613 127.285-73.367 144.563l-4.34 27.376a65.52 65.52 0 0 1-11.435 27.878L110.398 457.22c-6.344 8.847-17.027 13.521-27.878 12.186-33.636-4.174-64.936-26.876-79.542-57.174-4.758-9.849-3.756-21.534 2.587-30.382l124.28-173.525a65.572 65.572 0 0 1 22.703-19.782l24.456-12.937c15.441-8.18 8.096-9.933 113.18-115.934.835-4.006.835-6.093 3.005-6.677 2.504-.584 5.509-.834 5.259-3.839l-.334-3.839c-.167-1.586 1.085-3.005 2.671-3.005 3.756-.083 11.018 1.002 21.367 8.347 10.266 7.429 13.688 14.022 14.773 17.611.501 1.502-.501 3.088-2.003 3.505l-3.756.918c-2.839.751-2.087 3.672-1.92 6.176.083 2.339-1.92 3.007-5.426 5.093zM180.927 72.695c2.838.751 2.086 3.672 1.92 6.176-.167 2.253 1.752 2.921 5.342 5.008a3592.408 3592.408 0 0 0 18.529 36.725c.584 1.085 1.919 1.252 2.754.417a2545.8 2545.8 0 0 1 33.804-35.556c1.084-1.168 1.168-2.921.083-4.09a4385.546 4385.546 0 0 0-21.367-21.785c-.834-3.923-.834-6.093-3.004-6.677-2.504-.667-5.509-.834-5.259-3.839.251-2.754 1.169-6.761-2.337-6.844-3.756-.083-11.018.918-21.367 8.347-10.266 7.428-13.688 14.022-14.773 17.611-1.169 3.505 3.004 3.839 5.675 4.507zM506.36 381.768 382.163 208.243c-11.018-15.441-22.202-19.531-47.075-32.635-9.348-4.924-11.852-9.098-25.457-24.121-.834-.918-2.42-.751-3.004.417-38.645 74.118-39.313 69.11-40.898 79.125-1.419 8.931-1.086 16.693.25 24.873a65.532 65.532 0 0 0 11.435 27.878l124.281 173.524c6.343 8.848 16.859 13.522 27.627 12.27 33.637-4.089 65.104-26.709 79.877-57.257 4.506-9.932 3.588-21.618-2.839-30.549z"/>
</svg>
