<svg xmlns="http://www.w3.org/2000/svg" viewBox="0 0 256 256">
    <path d="M206.45 48.55C185.5 27.55 157.6 16 127.95 16c-61.2 0-111 49.8-111 111 0 19.55 5.1 38.65 14.8 55.5L16 240l58.85-15.45c16.2 8.85 34.45 13.5 53.05 13.5h.05c61.15 0 112.05-49.8 112.05-111 0-29.65-12.6-57.5-33.55-78.5zm-78.5 170.8c-16.6 0-32.85-4.45-47-12.85l-3.35-2-34.9 9.15L52 179.6l-2.2-3.5c-9.25-14.7-14.1-31.65-14.1-49.1 0-50.85 41.4-92.25 92.3-92.25 24.65 0 47.8 9.6 65.2 27.05 17.4 17.45 28.1 40.6 28.05 65.25 0 50.9-42.45 92.3-93.3 92.3zm50.6-69.1c-2.75-1.4-16.4-8.1-18.95-9-2.55-.95-4.4-1.4-6.25 1.4-1.85 2.8-7.15 9-8.8 10.9-1.6 1.85-3.25 2.1-6 .7-16.3-8.15-27-14.55-37.75-33-2.85-4.9 2.85-4.55 8.15-15.15.9-1.85.45-3.45-.25-4.85-.7-1.4-6.25-15.05-8.55-20.6-2.25-5.4-4.55-4.65-6.25-4.75-1.6-.1-3.45-.1-5.3-.1s-4.85.7-7.4 3.45c-2.55 2.8-9.7 9.5-9.7 23.15s9.95 26.85 11.3 28.7c1.4 1.85 19.55 29.85 47.4 41.9 17.6 7.6 24.5 8.25 33.3 6.95 5.35-.8 16.4-6.7 18.7-13.2s2.3-12.05 1.6-13.2c-.65-1.25-2.5-1.95-5.25-3.3z"/>
</svg>
