<svg viewBox="0 0 512 512" xmlns="http://www.w3.org/2000/svg">
    <path d="M500.343 132.811c-5.865-22.085-23.147-39.479-45.089-45.382C415.482 76.703 256 76.703 256 76.703s-159.481 0-199.254 10.726c-21.942 5.904-39.224 23.297-45.089 45.382C1 172.842 1 256.362 1 256.362s0 83.521 10.657 123.552c5.865 22.085 23.147 38.754 45.089 44.657C96.519 435.297 256 435.297 256 435.297s159.481 0 199.254-10.726c21.942-5.903 39.224-22.572 45.089-44.657C511 339.883 511 256.362 511 256.362s0-83.52-10.657-123.551ZM203.841 332.193V180.532l133.294 75.832-133.294 75.829Z"/>
</svg>
