<?xml version="1.0" encoding="utf-8"?>
<!-- Generator: Adobe Illustrator 16.0.3, SVG Export Plug-In . SVG Version: 6.00 Build 0)  -->
<!DOCTYPE svg PUBLIC "-//W3C//DTD SVG 1.1//EN" "http://www.w3.org/Graphics/SVG/1.1/DTD/svg11.dtd">
<svg version="1.1" id="Layer_1" xmlns="http://www.w3.org/2000/svg" xmlns:xlink="http://www.w3.org/1999/xlink" x="0px" y="0px"
	 width="512px" height="512px" viewBox="-0.29 62.68 512 512" enable-background="new -0.29 62.68 512 512" xml:space="preserve">
<path d="M505.93,482.24c16.45,28.45-4.18,64.01-36.98,64.01H42.44c-32.8,0-53.34-35.65-36.98-64.01l213.26-369.8
	c16.45-28.45,57.51-28.45,73.96,0L505.93,482.24z M255.7,405.8c-22.58,0-40.89,18.31-40.89,40.89s18.31,40.89,40.89,40.89
	s40.88-18.31,40.88-40.89S278.28,405.8,255.7,405.8z M216.85,258.85l6.57,120.9c0.27,5.69,4.98,10.05,10.67,10.05h43.11
	c5.69,0,10.31-4.45,10.66-10.05l6.59-120.9c0.36-6.13-4.53-11.29-10.68-11.29h-56.35c-6.14,0-11.03,5.16-10.67,11.29H216.85z"/>
</svg>
