<svg id="Ebene_1" data-name="Ebene 1" xmlns="http://www.w3.org/2000/svg" viewBox="0 0 24 24">
  <title>close</title>
  <g id="Interface-Essential_Form-Validation_remove-circle" data-name="Interface-Essential / Form-Validation / remove-circle">
    <g id="Group_400" data-name="Group 400">
      <g id="remove-circle">
        <path d="M12,24A12,12,0,1,1,24,12,12.014,12.014,0,0,1,12,24ZM12,1.5A10.5,10.5,0,1,0,22.5,12,10.512,10.512,0,0,0,12,1.5Z"/>
        <path d="M7.5,17.25a.751.751,0,0,1-.53-1.281l9-9A.75.75,0,0,1,17.03,8.03l-9,9A.744.744,0,0,1,7.5,17.25Z"/>
        <path d="M16.5,17.25a.744.744,0,0,1-.53-.22l-9-9A.75.75,0,1,1,8.03,6.969l9,9a.751.751,0,0,1-.53,1.281Z"/>
      </g>
    </g>
  </g>
</svg>
