<?xml version="1.0" encoding="utf-8"?>
<!-- Generator: Adobe Illustrator 27.7.0, SVG Export Plug-In . SVG Version: 6.00 Build 0)  -->
<svg version="1.1" id="Ebene_1" xmlns="http://www.w3.org/2000/svg" xmlns:xlink="http://www.w3.org/1999/xlink" x="0px" y="0px"
	 viewBox="0 0 512 512" enable-background="new 0 0 512 512" xml:space="preserve">
<path d="M440.89,284.44h-28.44c-7.85,0-14.22,6.37-14.22,14.22v99.56H113.78V113.78h128c7.85,0,14.22-6.37,14.22-14.22V71.11
	c0-7.85-6.37-14.22-14.22-14.22H99.56c-23.56,0-42.67,19.1-42.67,42.67v312.89c0,23.56,19.1,42.67,42.67,42.67l0,0h312.89
	c23.56,0,42.67-19.1,42.67-42.67l0,0V298.67C455.11,290.81,448.74,284.44,440.89,284.44z M490.67,0H376.89
	c-19,0-28.49,23.03-15.11,36.44l31.76,31.76L176.89,284.77c-8.35,8.32-8.37,21.82-0.05,30.17c0.02,0.02,0.03,0.03,0.05,0.05
	l20.15,20.12c8.32,8.35,21.82,8.37,30.17,0.05c0.02-0.02,0.03-0.03,0.05-0.05l216.54-216.6l31.75,31.72
	c13.33,13.33,36.44,4,36.44-15.11V21.33C512,9.55,502.45,0,490.67,0z"/>
</svg>
