<svg id="Ebene_1" data-name="Ebene 1" xmlns="http://www.w3.org/2000/svg" viewBox="0 0 24 24">
  <title>home</title>
  <g id="Interface-Essential_Home_house-2" data-name="Interface-Essential / Home / house-2">
    <g id="Group_3" data-name="Group 3">
      <g id="house-2">
        <path d="M22.5,13.19a.748.748,0,0,1-.53-.22L12.527,3.534A.752.752,0,0,0,12,3.31h0a.744.744,0,0,0-.529.219L2.031,12.97A.751.751,0,0,1,.969,11.909L10.4,2.467a2.242,2.242,0,0,1,1.59-.657H12a2.243,2.243,0,0,1,1.589.665l9.441,9.434a.75.75,0,0,1-.53,1.281Z"/>
        <path d="M19.5,22.19H4.5a.75.75,0,0,1-.75-.75v-12a.75.75,0,0,1,1.5,0V20.69h13.5V9.442a.75.75,0,0,1,1.5,0v12A.75.75,0,0,1,19.5,22.19Z"/>
        <path d="M15,22.19a.75.75,0,0,1-.75-.75v-4.5a2.25,2.25,0,1,0-4.5,0v4.5a.75.75,0,0,1-1.5,0v-4.5a3.75,3.75,0,0,1,7.5,0v4.5A.75.75,0,0,1,15,22.19Z"/>
      </g>
    </g>
  </g>
</svg>
