<?xml version="1.0" encoding="UTF-8" standalone="no"?><!DOCTYPE svg PUBLIC "-//W3C//DTD SVG 1.1//EN" "http://www.w3.org/Graphics/SVG/1.1/DTD/svg11.dtd"><svg width="100%" height="100%" viewBox="0 0 512 512" version="1.1" xmlns="http://www.w3.org/2000/svg" xmlns:xlink="http://www.w3.org/1999/xlink" xml:space="preserve" xmlns:serif="http://www.serif.com/" style="fill-rule:evenodd;clip-rule:evenodd;stroke-linejoin:round;stroke-miterlimit:2;"><path d="M506.895,219.907l-218.971,-179.942c-18.404,-15.373 -45.429,-15.373 -63.833,-0l-218.971,179.942c-5.962,5.006 -6.763,14.024 -1.778,20.003l9.068,11.024c5.006,5.962 14.025,6.764 20.004,1.778l24.448,-20.092l0,51.831l-0.266,0l-0,184.921c0.048,7.818 6.495,14.224 14.313,14.224l370.019,0c7.804,0 14.225,-6.421 14.225,-14.224l-0,-236.752l24.448,20.092c5.98,4.986 14.998,4.184 20.004,-1.778l9.157,-10.935c2.136,-2.558 3.307,-5.786 3.307,-9.118c0,-4.245 -1.9,-8.274 -5.174,-10.974Zm-94.416,7.645l-0.178,0l0,213.37l-99.395,0l0,-128.022c0,-15.606 -12.842,-28.449 -28.449,-28.449l-56.899,0c-15.606,0 -28.449,12.843 -28.449,28.449l0,128.022l-99.839,0l-0,-239.596l0.266,-0.267l0,-3.556l156.472,-128.467l156.471,128.556l-0,29.96Z" style="fill-rule:nonzero;"/></svg>