<?xml version="1.0" encoding="utf-8"?>
<!-- Generator: Adobe Illustrator 16.0.3, SVG Export Plug-In . SVG Version: 6.00 Build 0)  -->
<!DOCTYPE svg PUBLIC "-//W3C//DTD SVG 1.1//EN" "http://www.w3.org/Graphics/SVG/1.1/DTD/svg11.dtd">
<svg version="1.1" id="Layer_1" focusable="false" xmlns="http://www.w3.org/2000/svg" xmlns:xlink="http://www.w3.org/1999/xlink"
	 x="0px" y="0px" width="512px" height="256px" viewBox="0 0 512 256" enable-background="new 0 0 512 256" xml:space="preserve">
<path d="M492.8,0H19.2C8.596,0,0,8.596,0,19.2v217.6C0,247.404,8.596,256,19.2,256h473.6c10.604,0,19.2-8.596,19.2-19.2V19.2
	C512,8.596,503.405,0,492.8,0z M243.2,230.4H25.6V25.6h217.6V230.4z M486.4,230.4H268.8V25.6h217.6V230.4z M72.871,204.8h8.272
	c4.144,0,7.82-2.659,9.117-6.594l10.807-32.779h53.868l10.807,32.779c1.297,3.936,4.974,6.594,9.117,6.594h8.271
	c6.621,0,11.253-6.544,9.055-12.788l-47.324-134.4c-1.353-3.842-4.982-6.412-9.055-6.412h-15.611c-4.072,0-7.702,2.569-9.055,6.411
	l-47.324,134.4C61.617,198.256,66.25,204.8,72.871,204.8z M121.401,101.607c3.03-8.654,6.491-23.797,6.491-23.797h0.433
	c0,0,3.245,15.144,6.057,23.797l13.629,41.104h-40.239L121.401,101.607z M307.2,92.8v-6.4c0-5.301,4.298-9.6,9.6-9.6h54.4v-16
	c0-5.301,4.298-9.6,9.6-9.6h6.4c5.301,0,9.6,4.298,9.6,9.6v16h54.4c5.301,0,9.6,4.299,9.6,9.6v6.4c0,5.302-4.298,9.6-9.6,9.6h-12.56
	c-6.004,19.842-18.746,40.753-35.917,59.874c8.01,7.267,16.38,13.812,24.739,19.269c4.25,2.773,5.59,8.38,3.072,12.786l-3.189,5.581
	c-2.744,4.8-8.951,6.275-13.595,3.272c-10.516-6.8-20.317-14.59-29.248-22.8c-9.395,8.364-19.605,16.117-30.394,22.944
	c-4.609,2.917-10.728,1.358-13.433-3.376l-3.178-5.56c-2.558-4.476-1.103-10.138,3.247-12.904
	c9.105-5.79,17.776-12.342,25.792-19.381c-8.021-9.018-14.937-18.049-20.55-26.426c-3.066-4.577-1.688-10.784,3.042-13.608
	l5.494-3.279c4.375-2.611,10.04-1.361,12.874,2.874c5.103,7.625,10.975,15.157,17.342,22.362
	c12.013-13.548,21.377-27.924,26.839-41.626H316.8C311.498,102.4,307.2,98.102,307.2,92.8L307.2,92.8z"/>
</svg>
