<?xml version="1.0" encoding="UTF-8" standalone="no"?><!DOCTYPE svg PUBLIC "-//W3C//DTD SVG 1.1//EN" "http://www.w3.org/Graphics/SVG/1.1/DTD/svg11.dtd"><svg width="100%" height="100%" viewBox="0 0 512 512" version="1.1" xmlns="http://www.w3.org/2000/svg" xmlns:xlink="http://www.w3.org/1999/xlink"><path d="M115.158,510.994l-105.734,0l0,-340.493l105.734,0l0,340.493Zm-52.924,-386.939c-33.81,-0 -61.234,-28.005 -61.234,-61.815c0,-33.592 27.642,-61.234 61.234,-61.234c33.592,-0 61.234,27.642 61.234,61.234c0,33.81 -27.435,61.815 -61.234,61.815Zm448.766,386.939l-105.62,0l-0,-165.75c-0,-39.502 -0.797,-90.16 -54.973,-90.16c-54.973,-0 -63.397,42.917 -63.397,87.314l-0,168.596l-105.62,0l-0,-340.493l101.408,0l-0,46.446l1.48,0c14.116,-26.752 48.598,-54.984 100.042,-54.984c107.009,0 126.68,70.467 126.68,161.993l-0,187.038Z" style="fill-rule:nonzero;"/></svg>