<svg version="1.1" xmlns="http://www.w3.org/2000/svg" xmlns:xlink="http://www.w3.org/1999/xlink"  viewBox="0 0 260 260" fill="#00749d">
<g>
	<path d="M252.422,7.462C249.016,4.062,242.765,0,232.314,0c-10.593,0-24.472,4.552-40.309,12.676
		c7.535,3.99,14.787,8.756,21.6,14.302c4.422-1.799,19.811-7.26,23.168-3.86c17.989,17.889-65.393,111.427-83.396,129.445
		c-23.896,23.896-92.608,85.313-125.946,85.313c-9.781,0-4.335-15.211-0.662-24.284c-5.531-6.8-10.285-14.029-14.267-21.549
		C-13.454,242.426,6.215,260,27.432,260c17.125,0,42.744-11.682,71.593-31.631c9.75,3.082,20.079,4.869,30.86,4.869
		c57.024,0,103.245-46.222,103.245-103.246c0-10.745-1.785-21.057-4.854-30.78C245.192,74.827,273.409,28.434,252.422,7.462z"/>
	<path d="M137.733,136.92c26.69-26.703,49.894-55.15,65.271-79.809c-18.689-18.754-44.543-30.363-73.12-30.363
		c-57.024,0-103.245,46.221-103.245,103.245c0,28.462,11.522,54.23,30.146,72.912C81.733,187.506,110.641,164,137.733,136.92z"/>
</g>
</svg>
