<?xml version="1.0" encoding="UTF-8" standalone="no"?><!DOCTYPE svg PUBLIC "-//W3C//DTD SVG 1.1//EN" "http://www.w3.org/Graphics/SVG/1.1/DTD/svg11.dtd"><svg width="100%" height="100%" viewBox="0 0 512 512" version="1.1" xmlns="http://www.w3.org/2000/svg" xmlns:xlink="http://www.w3.org/1999/xlink"><path d="M494.817,168.135c-0,-111.068 -72.8,-143.634 -72.8,-143.634c-71.44,-32.795 -261.17,-32.452 -331.924,-0c-0,-0 -72.811,32.566 -72.811,143.634c-0,132.207 -7.542,296.41 120.7,330.347c46.29,12.227 86.066,14.855 118.073,13.027c58.059,-3.2 90.637,-20.683 90.637,-20.683l-1.943,-42.164c0,-0 -41.49,13.026 -88.123,11.541c-46.175,-1.6 -94.842,-5.028 -102.418,-61.705c-0.702,-5.265 -1.046,-10.571 -1.028,-15.883c97.847,23.882 181.285,10.398 204.253,7.656c64.127,-7.656 119.981,-47.193 127.1,-83.301c11.198,-56.905 10.284,-138.835 10.284,-138.835Zm-85.838,143.063l-53.283,-0l-0,-130.494c-0,-56.79 -73.131,-58.962 -73.131,7.885l-0,71.417l-52.94,0l-0,-71.429c-0,-66.846 -73.131,-64.675 -73.131,-7.884l-0,130.493l-53.398,0c0,-139.52 -5.941,-169.001 21.037,-199.968c29.595,-33.023 91.208,-35.194 118.644,6.971l13.255,22.282l13.255,-22.282c27.55,-42.393 89.266,-39.765 118.644,-6.971c27.093,31.195 21.025,60.562 21.025,199.968l0.023,0.012Z" style="fill-rule:nonzero;"/></svg>