<?xml version="1.0" encoding="utf-8"?>
<!-- Generator: Adobe Illustrator 24.2.1, SVG Export Plug-In . SVG Version: 6.00 Build 0)  -->
<svg version="1.1" id="Ebene_1" xmlns="http://www.w3.org/2000/svg" xmlns:xlink="http://www.w3.org/1999/xlink" x="0px" y="0px"
	 viewBox="0 0 24 24" enable-background="new 0 0 24 24" xml:space="preserve">
			<path d="M20.485,4.575l-15.91,15.91c-0.293,0.293-0.768,0.293-1.061,0c-0.293-0.293-0.293-0.768,0-1.061l15.91-15.91
				c0.293-0.293,0.768-0.293,1.061,0C20.778,3.808,20.778,4.282,20.485,4.575z"/>

			<path d="M19.425,20.485L3.515,4.575c-0.293-0.293-0.293-0.768,0-1.061s0.768-0.293,1.061,0l15.91,15.91
				c0.293,0.293,0.293,0.768,0,1.061C20.192,20.778,19.718,20.778,19.425,20.485z"/>
</svg>
