<?xml version="1.0" encoding="UTF-8" standalone="no"?><!DOCTYPE svg PUBLIC "-//W3C//DTD SVG 1.1//EN" "http://www.w3.org/Graphics/SVG/1.1/DTD/svg11.dtd"><svg width="100%" height="100%" viewBox="0 0 512 512" version="1.1" xmlns="http://www.w3.org/2000/svg" xmlns:xlink="http://www.w3.org/1999/xlink"><path d="M146.807,438.096c-0,40.264 -32.64,72.904 -72.904,72.904c-40.264,-0 -72.903,-32.64 -72.903,-72.904c0,-40.264 32.64,-72.904 72.904,-72.904c40.264,0 72.903,32.641 72.903,72.904Zm199.969,53.789c-9.51,-175.995 -150.478,-317.141 -326.661,-326.662c-10.399,-0.562 -19.115,7.794 -19.115,18.208l0,54.721c0,9.58 7.388,17.613 16.947,18.235c127.309,8.292 229.356,110.085 237.665,237.664c0.622,9.559 8.656,16.948 18.235,16.948l54.721,-0c10.415,0.001 18.771,-8.715 18.208,-19.114Zm164.212,0.328c-9.555,-266.179 -223.722,-481.599 -491.201,-491.201c-10.28,-0.369 -18.787,7.935 -18.787,18.221l0,54.72c0,9.819 7.781,17.81 17.592,18.213c217.636,8.924 392.32,183.641 401.243,401.243c0.402,9.811 8.393,17.592 18.213,17.592l54.72,-0c10.285,-0.001 18.589,-8.508 18.22,-18.788Z" style="fill-rule:nonzero;"/></svg>