<?xml version="1.0" encoding="UTF-8" standalone="no"?><!DOCTYPE svg PUBLIC "-//W3C//DTD SVG 1.1//EN" "http://www.w3.org/Graphics/SVG/1.1/DTD/svg11.dtd"><svg width="100%" height="100%" viewBox="0 0 512 512" version="1.1" xmlns="http://www.w3.org/2000/svg" xmlns:xlink="http://www.w3.org/1999/xlink"><path d="M508.5,468.9l-121.4,-121.4c-2.3,-2.3 -5.3,-3.5 -8.5,-3.5l-13.2,0c31.5,-36.5 50.6,-84 50.6,-136c-0,-114.9 -93.1,-208 -208,-208c-114.9,0 -208,93.1 -208,208c-0,114.9 93.1,208 208,208c52,0 99.5,-19.1 136,-50.6l-0,13.2c-0,3.2 1.3,6.2 3.5,8.5l121.4,121.4c4.7,4.7 12.3,4.7 17,0l22.6,-22.6c4.7,-4.7 4.7,-12.3 -0,-17Zm-300.5,-100.9c-88.4,0 -160,-71.6 -160,-160c-0,-88.4 71.6,-160 160,-160c88.4,0 160,71.6 160,160c-0,88.4 -71.6,160 -160,160Z" style="fill-rule:nonzero;"/></svg>