<?xml version="1.0" encoding="UTF-8" standalone="no"?>
<!DOCTYPE svg PUBLIC "-//W3C//DTD SVG 1.1//EN" "http://www.w3.org/Graphics/SVG/1.1/DTD/svg11.dtd">
<svg width="100%" height="100%" viewBox="0 0 128 128" version="1.1" xmlns="http://www.w3.org/2000/svg" xmlns:xlink="http://www.w3.org/1999/xlink" xml:space="preserve">
    <path d="M84.12,88.786C70.046,100.681 49.444,105.282 31.306,97.741C15.086,90.998 2.915,75.317 0.478,57.902C-1.764,41.879 4.164,24.921 15.962,13.806C25.19,5.113 37.678,0.106 50.473,-0.015C50.692,-0.016 50.911,-0.016 51.13,-0.015C69.558,0.16 87.425,11.059 95.916,27.39C103.156,41.316 103.433,58.661 96.605,72.833C94.6,76.995 91.977,80.813 88.877,84.209L127.049,122.382C127.754,123.137 127.87,123.536 127.975,124.199C128.397,126.865 124.919,129.413 122.383,127.048L84.12,88.786ZM50.515,6.584C30.257,6.776 11.376,22.232 7.429,42.155C4.566,56.603 9.488,72.382 20.103,82.624C32.377,94.466 51.782,98.292 67.763,91.647C81.879,85.779 92.47,72.128 94.589,56.988C97.217,38.213 86.346,18.332 68.997,10.488C63.205,7.869 56.88,6.564 50.515,6.584Z"/>
</svg>
