<?xml version="1.0" encoding="utf-8"?>
<!-- Generator: Adobe Illustrator 16.0.3, SVG Export Plug-In . SVG Version: 6.00 Build 0)  -->
<!DOCTYPE svg PUBLIC "-//W3C//DTD SVG 1.1//EN" "http://www.w3.org/Graphics/SVG/1.1/DTD/svg11.dtd">
<svg version="1.1" id="Layer_1" xmlns="http://www.w3.org/2000/svg" xmlns:xlink="http://www.w3.org/1999/xlink" x="0px" y="0px"
	 width="256px" height="256px" viewBox="0 0 256 256" enable-background="new 0 0 256 256" xml:space="preserve">
<path d="M128,18c5.71,0,11.31,0.43,16.79,1.27l-1.57,10.19c-4.96-0.76-10.04-1.15-15.21-1.15s-10.25,0.39-15.21,1.15l-1.57-10.19
	C116.69,18.43,122.29,18,128,18z M154.1,21.12l-2.45,10.02c10.05,2.45,19.51,6.42,28.11,11.65l5.35-8.82
	C175.63,28.2,165.2,23.82,154.1,21.12z M193.01,39.26l-6.09,8.32c8.22,6.03,15.48,13.29,21.51,21.51l8.32-6.09
	C210.09,53.92,202.08,45.91,193.01,39.26z M222.03,70.88l-8.81,5.35c5.23,8.6,9.2,18.05,11.65,28.1l10.02-2.45
	C232.19,90.81,227.8,80.37,222.03,70.88z M236.73,111.22l-10.19,1.57c0.76,4.96,1.15,10.04,1.15,15.21s-0.39,10.25-1.15,15.21
	l10.19,1.57c0.84-5.47,1.27-11.08,1.27-16.79C238,122.29,237.56,116.69,236.73,111.22z M213.21,179.76
	c5.23-8.6,9.2-18.05,11.65-28.11l10.02,2.45c-2.7,11.09-7.08,21.53-12.86,31.01L213.21,179.76z M208.42,186.92l8.32,6.09
	c-6.65,9.07-14.67,17.08-23.73,23.73l-6.1-8.32C195.13,202.39,202.39,195.13,208.42,186.92L208.42,186.92z M179.76,213.21l5.35,8.81
	c-9.49,5.78-19.92,10.16-31.01,12.86l-2.45-10.02C161.71,222.42,171.16,218.45,179.76,213.21z M143.21,226.53l1.57,10.19
	c-5.47,0.84-11.08,1.27-16.79,1.27c-5.71,0-11.31-0.44-16.79-1.27l1.57-10.19c4.96,0.76,10.04,1.15,15.21,1.15
	C133.17,227.69,138.25,227.29,143.21,226.53z M104.34,224.87l-2.45,10.02c-8.33-2.03-16.29-5-23.76-8.81l-10.44,2.44l-2.34-10.04
	l14.11-3.29l3.36,1.71C89.58,220.33,96.79,223.03,104.34,224.87z M56.65,220.5l2.34,10.04l-17.9,4.17
	c-11.91,2.78-22.6-7.91-19.82-19.82l4.18-17.9l10.04,2.34l-4.17,17.89c-1.04,4.46,2.97,8.47,7.43,7.43L56.65,220.5z M37.53,190.65
	l-10.04-2.35l2.44-10.44c-3.8-7.47-6.78-15.43-8.81-23.76l10.02-2.45c1.84,7.55,4.53,14.76,7.98,21.53l1.71,3.36L37.53,190.65z
	 M29.46,143.21l-10.19,1.57C18.43,139.31,18,133.71,18,128c0-5.71,0.43-11.31,1.27-16.78l10.19,1.57
	c-0.76,4.96-1.15,10.04-1.15,15.21C28.31,133.18,28.71,138.25,29.46,143.21z M31.14,104.34l-10.02-2.45
	c2.7-11.09,7.08-21.52,12.86-31.01l8.82,5.35C37.55,84.84,33.58,94.29,31.14,104.34z M47.58,69.09l-8.32-6.09
	c6.66-9.07,14.67-17.08,23.74-23.74l6.09,8.32C60.87,53.61,53.61,60.87,47.58,69.09z M76.24,42.79l-5.35-8.82
	c9.49-5.78,19.92-10.16,31.01-12.85l2.45,10.02C94.29,33.58,84.84,37.55,76.24,42.79z M217.38,128c0,49.36-40.01,89.38-89.38,89.38
	c-15.66,0-30.37-4.03-43.17-11.1c-1.23-0.68-2.67-0.91-4.04-0.59l-39.76,9.28l9.28-39.76c0.32-1.37,0.1-2.81-0.59-4.04
	c-7.07-12.8-11.1-27.51-11.1-43.17c0-49.36,40.01-89.38,89.38-89.38S217.38,78.64,217.38,128z"/>
</svg>
