<?xml version="1.0" encoding="utf-8"?>
<!-- Generator: Adobe Illustrator 28.2.0, SVG Export Plug-In . SVG Version: 6.00 Build 0)  -->
<svg version="1.1" id="Ebene_1" xmlns="http://www.w3.org/2000/svg" xmlns:xlink="http://www.w3.org/1999/xlink" x="0px" y="0px"
	 viewBox="0 0 512 512" enable-background="new 0 0 512 512" xml:space="preserve">
<path d="M479.15,210.1c-43.87,0.09-86.67-13.6-122.33-39.15v178.12c-0.03,89.46-72.57,161.96-162.03,161.93
	S32.83,438.43,32.85,348.97c0.03-89.46,72.57-161.96,162.03-161.93c7.45,0,14.89,0.52,22.26,1.54v89.56
	c-39.15-12.32-80.88,9.42-93.2,48.57s9.42,80.88,48.57,93.2c39.15,12.32,80.88-9.42,93.2-48.57c2.27-7.21,3.42-14.72,3.43-22.27V1
	h87.66c-0.05,7.41,0.58,14.82,1.89,22.12l0,0c6.16,32.88,25.58,61.77,53.69,79.89c19.8,13.08,43.01,20.04,66.74,20.02V210.1z"/>
</svg>
