<?xml version="1.0" encoding="utf-8"?>
<!-- Generator: Adobe Illustrator 16.0.3, SVG Export Plug-In . SVG Version: 6.00 Build 0)  -->
<!DOCTYPE svg PUBLIC "-//W3C//DTD SVG 1.1//EN" "http://www.w3.org/Graphics/SVG/1.1/DTD/svg11.dtd">
<svg version="1.1" id="Layer_1" xmlns="http://www.w3.org/2000/svg" xmlns:xlink="http://www.w3.org/1999/xlink" x="0px" y="0px"
	 width="512px" height="512px" viewBox="0 0 512 512" enable-background="new 0 0 512 512" xml:space="preserve">
<path d="M323.82,83.962c-66.605,133.629-70.613,127.285-73.367,144.563l-4.34,27.376c-1.586,10.016-5.508,19.616-11.435,27.878
	l-124.28,173.441c-6.344,8.847-17.027,13.521-27.878,12.186c-33.636-4.174-64.936-26.876-79.542-57.174
	c-4.758-9.849-3.756-21.534,2.587-30.382l124.28-173.525c5.926-8.263,13.688-15.024,22.703-19.782l24.456-12.937
	c15.441-8.18,8.096-9.933,113.18-115.934c0.835-4.006,0.835-6.093,3.005-6.677c2.504-0.584,5.509-0.834,5.259-3.839l-0.334-3.839
	c-0.167-1.586,1.085-3.005,2.671-3.005c3.756-0.083,11.018,1.002,21.367,8.347c10.266,7.429,13.688,14.022,14.773,17.611
	c0.501,1.502-0.501,3.088-2.003,3.505l-3.756,0.918c-2.839,0.751-2.087,3.672-1.92,6.176
	C329.329,81.208,327.326,81.876,323.82,83.962L323.82,83.962z M180.927,72.695c2.838,0.751,2.086,3.672,1.92,6.176
	c-0.167,2.253,1.752,2.921,5.342,5.008c6.594,13.271,12.77,25.457,18.529,36.725c0.584,1.085,1.919,1.252,2.754,0.417
	c9.348-10.016,20.533-21.868,33.804-35.556c1.084-1.168,1.168-2.921,0.083-4.09c-6.677-6.844-13.771-14.105-21.367-21.785
	c-0.834-3.923-0.834-6.093-3.004-6.677c-2.504-0.667-5.509-0.834-5.259-3.839c0.251-2.754,1.169-6.761-2.337-6.844
	c-3.756-0.083-11.018,0.918-21.367,8.347c-10.266,7.428-13.688,14.022-14.773,17.611C174.083,71.693,178.256,72.027,180.927,72.695z
	 M506.36,381.768L382.163,208.243c-11.018-15.441-22.202-19.531-47.075-32.635c-9.348-4.924-11.852-9.098-25.457-24.121
	c-0.834-0.918-2.42-0.751-3.004,0.417c-38.645,74.118-39.313,69.11-40.898,79.125c-1.419,8.931-1.086,16.693,0.25,24.873
	c1.586,10.016,5.509,19.616,11.435,27.878l124.281,173.524c6.343,8.848,16.859,13.522,27.627,12.27
	c33.637-4.089,65.104-26.709,79.877-57.257C513.705,402.385,512.787,390.699,506.36,381.768z"/>
<g>
</g>
<g>
</g>
<g>
</g>
<g>
</g>
<g>
</g>
<g>
</g>
<g>
</g>
<g>
</g>
<g>
</g>
<g>
</g>
<g>
</g>
<g>
</g>
<g>
</g>
<g>
</g>
<g>
</g>
</svg>
