<?xml version="1.0" encoding="utf-8"?>
<!-- Generator: Adobe Illustrator 16.0.3, SVG Export Plug-In . SVG Version: 6.00 Build 0)  -->
<!DOCTYPE svg PUBLIC "-//W3C//DTD SVG 1.1//EN" "http://www.w3.org/Graphics/SVG/1.1/DTD/svg11.dtd">
<svg version="1.1" id="Layer_1" xmlns="http://www.w3.org/2000/svg" xmlns:xlink="http://www.w3.org/1999/xlink" x="0px" y="0px"
	 width="256px" height="256px" viewBox="0 0 256 256" enable-background="new 0 0 256 256" xml:space="preserve">
<path d="M206.45,48.55C185.5,27.55,157.6,16,127.95,16c-61.2,0-111,49.8-111,111c0,19.55,5.1,38.65,14.8,55.5L16,240l58.85-15.45
	c16.2,8.85,34.45,13.5,53.05,13.5h0.05c61.15,0,112.05-49.8,112.05-111C240,97.4,227.4,69.55,206.45,48.55z M127.95,219.35
	c-16.6,0-32.85-4.45-47-12.85l-3.35-2l-34.9,9.15L52,179.6l-2.2-3.5c-9.25-14.7-14.1-31.65-14.1-49.1c0-50.85,41.4-92.25,92.3-92.25
	c24.65,0,47.8,9.6,65.2,27.05c17.4,17.45,28.1,40.6,28.05,65.25C221.25,177.95,178.8,219.35,127.95,219.35z M178.55,150.25
	c-2.75-1.4-16.4-8.1-18.95-9c-2.55-0.95-4.4-1.4-6.25,1.4c-1.85,2.8-7.15,9-8.8,10.9c-1.6,1.85-3.25,2.1-6,0.7
	c-16.3-8.15-27-14.55-37.75-33c-2.85-4.9,2.85-4.55,8.15-15.15c0.9-1.85,0.45-3.45-0.25-4.85c-0.7-1.4-6.25-15.05-8.55-20.6
	C97.9,75.25,95.6,76,93.9,75.9c-1.6-0.1-3.45-0.1-5.3-0.1s-4.85,0.7-7.4,3.45c-2.55,2.8-9.7,9.5-9.7,23.15s9.95,26.85,11.3,28.7
	c1.4,1.85,19.55,29.85,47.4,41.9c17.6,7.6,24.5,8.25,33.3,6.95c5.35-0.8,16.4-6.7,18.7-13.2s2.3-12.05,1.6-13.2
	C183.15,152.3,181.3,151.6,178.55,150.25z"/>
</svg>
