<?xml version="1.0" encoding="utf-8"?>
<!-- Generator: Adobe Illustrator 24.1.2, SVG Export Plug-In . SVG Version: 6.00 Build 0)  -->
<svg version="1.1" id="Ebene_1" focusable="false" xmlns="http://www.w3.org/2000/svg" xmlns:xlink="http://www.w3.org/1999/xlink"
	 x="0px" y="0px" viewBox="0 0 512 512" style="enable-background:new 0 0 512 512;" xml:space="preserve">
<path d="M226.7,210c-1.8,3.3-25.2,44.4-70.1,123.5c-4.9,8.3-10.8,12.5-17.7,12.5H73.8c-7.7,0-12.1-7.5-8.5-14.4l69-121.3
	c0.2,0,0.2-0.1,0-0.3l-43.9-75.6c-4.3-7.8,0.3-14.1,8.5-14.1H164c7.3,0,13.3,4.1,18,12.2L226.7,210z M446.6,46.1l-144,253v0.3
	L394.2,466c3.9,7.1,0.2,14.1-8.5,14.1h-65.2c-7.6,0-13.6-4-18-12.2l-92.4-168.5c3.3-5.8,51.5-90.8,144.8-255.2
	c4.6-8.1,10.4-12.2,17.5-12.2h65.7C446.1,32,450.4,38.7,446.6,46.1L446.6,46.1z"/>
</svg>
