<?xml version="1.0" encoding="UTF-8" standalone="no"?><!DOCTYPE svg PUBLIC "-//W3C//DTD SVG 1.1//EN" "http://www.w3.org/Graphics/SVG/1.1/DTD/svg11.dtd"><svg width="100%" height="100%" viewBox="0 0 512 512" version="1.1" xmlns="http://www.w3.org/2000/svg" xmlns:xlink="http://www.w3.org/1999/xlink"><path d="M500.343,132.811c-5.865,-22.085 -23.147,-39.479 -45.089,-45.382c-39.772,-10.726 -199.254,-10.726 -199.254,-10.726c-0,0 -159.481,0 -199.254,10.726c-21.942,5.904 -39.224,23.297 -45.089,45.382c-10.657,40.031 -10.657,123.551 -10.657,123.551c-0,0 -0,83.521 10.657,123.552c5.865,22.085 23.147,38.754 45.089,44.657c39.773,10.726 199.254,10.726 199.254,10.726c-0,-0 159.481,-0 199.254,-10.726c21.942,-5.903 39.224,-22.572 45.089,-44.657c10.657,-40.031 10.657,-123.552 10.657,-123.552c0,0 0,-83.52 -10.657,-123.551Zm-296.502,199.382l-0,-151.661l133.294,75.832l-133.294,75.829Z" style="fill-rule:nonzero;"/></svg>